<?xml version="1.0" encoding="UTF-8" standalone="no"?>
<!-- Created with Inkscape (http://www.inkscape.org/) -->

<svg
   xmlns:dc="http://purl.org/dc/elements/1.1/"
   xmlns:cc="http://creativecommons.org/ns#"
   xmlns:rdf="http://www.w3.org/1999/02/22-rdf-syntax-ns#"
   xmlns:svg="http://www.w3.org/2000/svg"
   xmlns="http://www.w3.org/2000/svg"
   xmlns:sodipodi="http://sodipodi.sourceforge.net/DTD/sodipodi-0.dtd"
   xmlns:inkscape="http://www.inkscape.org/namespaces/inkscape"
   width="130.99997"
   height="30.45397"
   viewBox="0 0 34.660407 8.0576131"
   version="1.1"
   id="svg3474"
   inkscape:version="0.92.0 r15299"
   sodipodi:docname="guru.svg">
  <defs
     id="defs3468" />
  <sodipodi:namedview
     id="base"
     pagecolor="#ffffff"
     bordercolor="#666666"
     borderopacity="1.0"
     inkscape:pageopacity="0.0"
     inkscape:pageshadow="2"
     inkscape:zoom="6.9000015"
     inkscape:cx="64.999986"
     inkscape:cy="14.726986"
     inkscape:document-units="mm"
     inkscape:current-layer="layer1"
     showgrid="false"
     fit-margin-top="0"
     fit-margin-left="0"
     fit-margin-right="0"
     fit-margin-bottom="0"
     units="px"
     inkscape:window-width="1280"
     inkscape:window-height="744"
     inkscape:window-x="-4"
     inkscape:window-y="-4"
     inkscape:window-maximized="1" />
  <metadata
     id="metadata3471">
    <rdf:RDF>
      <cc:Work
         rdf:about="">
        <dc:format>image/svg+xml</dc:format>
        <dc:type
           rdf:resource="http://purl.org/dc/dcmitype/StillImage" />
        <dc:title></dc:title>
      </cc:Work>
    </rdf:RDF>
  </metadata>
  <g
     inkscape:label="Layer 1"
     inkscape:groupmode="layer"
     id="layer1"
     transform="translate(-84.099704,-139.38057)">
    <g
       id="g3501"
       transform="translate(0.1322913,-0.13228858)">
      <path
         style="stroke-width:0.13719918"
         id="path3414"
         d="m 106.38085,140.9075 v 2.20891 c 0,0.75459 -0.90552,1.38571 -1.98939,1.38571 -1.08387,0 -1.98939,-0.63112 -1.98939,-1.38571 v -2.18147 h -0.80947 v 2.16775 c 0,1.20735 1.26223,2.19519 2.79886,2.19519 1.55035,0 2.79886,-0.98784 2.79886,-2.19519 v -2.19519 z"
         inkscape:connector-curvature="0" />
      <path
         style="stroke-width:0.13719918"
         id="path3416"
         d="m 117.68606,140.9075 v 2.20891 c 0,0.75459 -0.90552,1.38571 -1.98939,1.38571 -1.08387,0 -1.98939,-0.63112 -1.98939,-1.38571 v -2.18147 h -0.80947 v 2.16775 c 0,1.20735 1.26223,2.19519 2.79886,2.19519 1.55035,0 2.79886,-0.98784 2.79886,-2.19519 v -2.19519 z"
         inkscape:connector-curvature="0" />
      <path
         style="stroke-width:0.13719918"
         id="path3418"
         d="M 108.60347,145.3116 H 107.794 v -4.4041 h 0.80947 v 1.78359 c 1.26224,-1.64639 3.56718,-1.78359 3.59462,-1.78359 l 0.0412,0.80948 c -0.15092,0.0137 -3.63578,0.21952 -3.63578,3.59462 z"
         inkscape:connector-curvature="0" />
      <path
         style="stroke-width:0.13719918"
         id="path3420"
         d="m 100.2892,140.9075 v 0.65856 c -0.507626,-0.39788 -1.207346,-0.65856 -1.989376,-0.65856 -1.55036,0 -2.79887,0.98784 -2.79887,2.19519 0,1.20735 1.26223,2.19519 2.79887,2.19519 0.78203,0 1.48175,-0.24696 1.989376,-0.65856 v 0.58996 c 0,0.75459 -0.905506,1.38571 -1.989376,1.38571 -0.86436,0 -1.61896,-0.4116 -1.87963,-0.9604 l -0.78204,0.24696 c 0.35672,0.8918 1.42687,1.53663 2.66167,1.53663 1.50919,0 2.743976,-0.94667 2.798856,-2.12658 v 0 -4.4041 z m -1.989376,3.5809 c -1.08388,0 -1.98939,-0.63112 -1.98939,-1.38571 0,-0.7546 0.90551,-1.38571 1.98939,-1.38571 1.08387,0 1.989376,0.63111 1.989376,1.38571 0,0.75459 -0.905506,1.38571 -1.989376,1.38571 z"
         inkscape:connector-curvature="0" />
      <path
         style="stroke-width:0.13719918"
         id="path3422"
         d="m 90.493184,144.29632 c 0.38416,0.096 0.7546,0.21952 1.11132,0.39788 0.35671,0.16464 0.67227,0.37044 0.97411,0.60368 0.30184,0.23323 0.57624,0.49391 0.83691,0.78203 0.26068,0.28812 0.4802,0.58996 0.67228,0.93296 h -1.44059 c -0.21952,-0.26068 -0.45276,-0.49392 -0.71344,-0.69972 -0.26068,-0.2058 -0.54879,-0.38416 -0.85063,-0.53508 -0.30184,-0.15092 -0.6174,-0.26068 -0.94668,-0.34299 -0.32927,-0.0823 -0.67227,-0.12348 -1.04271,-0.12348 -0.37044,0 -0.71344,0.0412 -1.056431,0.12348 -0.342999,0.0823 -0.658559,0.19207 -0.946679,0.34299 -0.30184,0.15092 -0.57623,0.32928 -0.83691,0.53508 -0.26068,0.2058 -0.50764,0.43904 -0.71344,0.69972 h -1.44059 c 0.19208,-0.343 0.4116,-0.64484 0.67228,-0.94668 0.26067,-0.28812 0.53507,-0.5488 0.85063,-0.78203 0.31556,-0.23324 0.64484,-0.42532 0.98783,-0.58996 0.35672,-0.16464 0.727159,-0.30184 1.11132,-0.39788 -0.343,-0.0823 -0.65856,-0.19208 -0.94668,-0.32928 -0.30183,-0.1372 -0.57623,-0.30183 -0.85063,-0.49391 -0.2744,-0.19208 -0.52136,-0.39788 -0.7546,-0.63112 -0.23324,-0.23324 -0.43903,-0.49392 -0.63111,-0.75459 0.096,-0.15092 0.19208,-0.28812 0.31556,-0.42532 0.10975,-0.1372 0.23323,-0.26068 0.35671,-0.38416 0.12348,-0.12348 0.24696,-0.26068 0.39788,-0.37044 0.1372,-0.10976 0.2744,-0.21952 0.4116,-0.31556 0.0137,-0.12347 0.0412,-0.23323 0.096,-0.32927 0.0549,-0.096 0.12348,-0.19208 0.2058,-0.2744 0.0823,-0.0823 0.17836,-0.15092 0.28811,-0.19208 0.10976,-0.0412 0.21952,-0.0686 0.343,-0.0686 0.1372,0 0.26068,0.0274 0.37044,0.0823 0.10976,0.0549 0.21952,0.12348 0.30184,0.2058 0.0823,0.0823 0.16464,0.19208 0.2058,0.30184 0.0823,0.12348 0.109759,0.24695 0.109759,0.38415 0,0.1372 -0.0274,0.26068 -0.0823,0.37044 -0.0549,0.10976 -0.12348,0.21952 -0.205799,0.30184 -0.0823,0.0823 -0.19208,0.15092 -0.30184,0.2058 -0.109761,0.0412 -0.23324,0.0686 -0.37044,0.0686 -0.0274,0 -0.0549,0 -0.096,0 -0.0274,0 -0.0686,0 -0.096,-0.0137 -0.0274,0 -0.0549,-0.0137 -0.096,-0.0274 -0.0274,-0.0137 -0.0686,-0.0274 -0.096,-0.0412 -0.0549,0.0412 -0.10976,0.0823 -0.15092,0.12348 -0.0412,0.0412 -0.096,0.0823 -0.15092,0.12348 -0.0549,0.0412 -0.10976,0.0823 -0.15092,0.12348 -0.0412,0.0412 -0.096,0.0823 -0.1372,0.1372 0.2058,0.19207 0.4116,0.37043 0.64483,0.52135 0.23324,0.16464 0.4802,0.30184 0.74088,0.39788 0.260679,0.10976 0.53508,0.19208 0.8232,0.24696 0.28811,0.0549 0.58995,0.096 0.87807,0.096 0.30184,0 0.58996,-0.0274 0.87807,-0.096 0.288119,-0.0549 0.56252,-0.15092 0.8232,-0.24696 0.26068,-0.10976 0.50764,-0.24696 0.74088,-0.39788 0.23323,-0.16464 0.43903,-0.343 0.64483,-0.52135 h 0.0137 c 0,-0.0137 0,-0.0274 0,-0.0412 0,-0.0137 0,-0.0274 0,-0.0412 0,-0.0137 0,-0.0274 0,-0.0412 0,-0.0137 0,-0.0274 0,-0.0412 0,-0.1372 0.0274,-0.26068 0.0686,-0.38416 0.0412,-0.12348 0.12348,-0.23324 0.2058,-0.32928 0.096,-0.096 0.2058,-0.16464 0.32928,-0.2058 0.12348,-0.0412 0.24696,-0.0686 0.38416,-0.0686 0.13719,0 0.26067,0.0274 0.38415,0.0686 0.12348,0.0412 0.21952,0.12348 0.31556,0.2058 0.0823,0.096 0.16464,0.2058 0.2058,0.32928 0.0549,0.12348 0.0823,0.24696 0.0823,0.38416 0,0.1372 -0.0274,0.26067 -0.0823,0.38415 -0.0549,0.12348 -0.12348,0.21952 -0.2058,0.31556 -0.0823,0.0823 -0.19208,0.16464 -0.31556,0.2058 -0.12348,0.0549 -0.24696,0.0823 -0.38415,0.0823 -0.0274,0 -0.0412,0 -0.0549,0 -0.0137,0 -0.0274,0 -0.0549,0 -0.0137,0 -0.0412,0 -0.0549,-0.0137 -0.0137,0 -0.0274,-0.0137 -0.0549,-0.0137 -0.16464,0.16464 -0.343,0.31556 -0.535081,0.46648 -0.192079,0.15092 -0.397879,0.28812 -0.60368,0.39788 -0.20579,0.12347 -0.42531,0.23323 -0.65855,0.32927 -0.192079,0.10976 -0.439039,0.17836 -0.672279,0.23324 z"
         inkscape:connector-curvature="0" />
      <path
         d="m 88.490074,140.8389 c 0,-0.0137 0,-0.0274 0,-0.0412 0,-0.0137 0,-0.0274 0,-0.0412 0,-0.0137 0,-0.0274 0,-0.0412 0,-0.0137 0,-0.0274 0,-0.0412 0,-0.0823 -0.0137,-0.16464 -0.0137,-0.24695 -0.0137,-0.0823 -0.0274,-0.17836 -0.0549,-0.24696 -0.0274,-0.0823 -0.0686,-0.16464 -0.10976,-0.23324 -0.0412,-0.0686 -0.096,-0.15092 -0.13719,-0.2058 0.0686,-0.0137 0.13719,-0.0274 0.21951,-0.0274 0.0823,0 0.16464,-0.0137 0.24696,-0.0137 0.0823,0 0.16464,-0.0137 0.24696,-0.0137 0.0686,-0.0412 0.15092,-0.0412 0.21952,-0.0412 0.30184,0 0.58996,0.0274 0.87807,0.0686 0.28812,0.0412 0.56252,0.10976 0.83692,0.2058 0.2744,0.0823 0.53508,0.19208 0.78204,0.32928 0.24695,0.12348 0.49391,0.27439 0.71343,0.43903 -0.0823,0.0549 -0.15092,0.12348 -0.21952,0.19208 -0.0686,0.0686 -0.12348,0.15092 -0.17836,0.23324 -0.0412,0.0823 -0.096,0.16464 -0.1372,0.26068 -0.0412,0.096 -0.0686,0.19208 -0.0823,0.28812 -0.17835,-0.1372 -0.37043,-0.26068 -0.57623,-0.37044 -0.2058,-0.10976 -0.425321,-0.19208 -0.63112,-0.2744 -0.21952,-0.0686 -0.43904,-0.12348 -0.67227,-0.16464 -0.23324,-0.0274 -0.4802,-0.0549 -0.71344,-0.0549 -0.0549,0 -0.10976,0 -0.16464,0 -0.0549,0 -0.10976,0 -0.16464,0 -0.0549,0 -0.10976,0 -0.15092,0.0137 -0.0412,0 -0.0823,0.0137 -0.1372,0.0274 z"
         id="arch"
         inkscape:connector-curvature="0"
         style="fill:#2777c6;fill-opacity:1;stroke-width:0.13719918" />
      <path
         style="stroke-width:0.13719918"
         id="path3425"
         d="m 88.201964,142.15601 c 0,-0.13719 0.0274,-0.26067 0.0823,-0.37043 0.0549,-0.10976 0.12348,-0.21952 0.2058,-0.30184 0.0823,-0.0823 0.19208,-0.16464 0.30184,-0.2058 0.10976,-0.0549 0.23324,-0.0823 0.37044,-0.0823 0.1372,0 0.26068,0.0274 0.38416,0.0823 0.12348,0.0549 0.21952,0.12348 0.31556,0.2058 0.0823,0.0823 0.15091,0.19208 0.20579,0.30184 0.0412,0.10976 0.0686,0.23324 0.0686,0.37043 0,0.1372 -0.0274,0.26068 -0.0686,0.37044 -0.0412,0.10976 -0.10976,0.21952 -0.20579,0.30184 -0.0823,0.0823 -0.19208,0.16464 -0.31556,0.2058 -0.12348,0.0549 -0.24696,0.0823 -0.38416,0.0823 -0.1372,0 -0.26068,-0.0274 -0.37044,-0.0823 -0.109761,-0.0549 -0.21952,-0.12348 -0.30184,-0.2058 -0.0823,-0.0823 -0.164641,-0.19208 -0.2058,-0.30184 -0.0549,-0.10976 -0.0823,-0.23324 -0.0823,-0.37044 z"
         inkscape:connector-curvature="0" />
    </g>
  </g>
</svg>
